<svg width="99" height="110" xmlns="http://www.w3.org/2000/svg" preserveAspectRatio="xMidYMid meet">
 <g>
  <g id="svg_1" fill="white" transform="translate(0,110) scale(0.10000000149011612,-0.10000000149011612) ">
   <path id="svg_2" d="m158.631581,1058.868423c-8,-21 10,-168 29,-229c13,-45 13,-49 -9,-84c-38,-60 -61,-74 -101,-68l-36,6l20,-32c11,-18 41,-43 70,-57c28,-14 49,-29 47,-35c-5,-15 -68,-10 -104,8c-39,19 -40,13 -4,-44c30,-47 86,-91 140,-110c17,-6 32,-17 32,-25c0,-17 -37,-18 -77,-3l-28,10l31,-33c17,-18 55,-68 84,-111c58,-84 137,-162 206,-203l43,-25l48,28c97,57 211,190 280,328c65,129 121,335 126,459l2,60l-63,19l-62,19l6,64c6,52 4,65 -9,69c-15,6 -118,-41 -170,-77c-24,-17 -44,-20 -160,-20l-132,0l-84,51c-89,54 -115,61 -125,35zm729,-178c30,-13 34,-19 30,-43c-43,-252 -89,-382 -190,-538c-42,-65 -133,-164 -184,-199l-39,-27l-39,24c-59,39 -193,185 -193,211c0,16 67,13 83,-3c6,-6 14,-11 17,-11c9,0 34,192 28,210c-2,7 -24,20 -48,29c-41,15 -48,23 -82,91c-20,41 -36,76 -34,77c1,1 18,-2 38,-7c44,-13 121,-67 115,-83c-6,-18 -42,-15 -41,4c1,9 -13,23 -31,32l-33,16l24,-44c20,-34 34,-46 69,-58c49,-16 57,-8 34,35c-13,24 0,42 24,32c20,-7 37,-63 37,-119c0,-40 0,-40 -18,-18c-16,22 -17,20 -17,-74c0,-97 0,-98 27,-107c17,-6 41,-6 65,0l37,9l-4,50c-3,28 -4,72 -4,99l1,49l-18,-24l-19,-24l0,30c0,45 19,118 33,127c24,16 40,9 33,-14c-3,-13 -9,-33 -12,-45l-6,-22l49,18c38,13 53,25 71,59l24,43l-35,-17c-20,-9 -34,-23 -33,-33c1,-10 -7,-16 -18,-16c-64,0 25,77 111,96c54,12 54,13 52,48c-4,45 30,151 48,151c8,0 29,-6 48,-14z"/>
  </g>
  <path stroke="white" transform="rotate(-151.0908966064453 45.2367820739746,84.40611267089844) " id="svg_35" d="m44.286529,88.438611c-1.145725,-0.437874 -1.966944,-1.829182 -1.780311,-3.01623c0.117677,-0.748519 2.600511,-5.29256 2.817336,-5.156272c0.070764,0.044492 0.700536,1.103895 1.39948,2.354246c1.119633,2.002922 1.270801,2.376407 1.270801,3.139639c0,1.547046 -1.217343,2.814251 -2.679004,2.788746c-0.426546,-0.007441 -0.88927,-0.057002 -1.028303,-0.110129l0,0zm1.14789,-0.778106c0.037935,-0.200292 -0.050657,-0.297973 -0.270233,-0.297973c-0.50043,0 -1.194612,-0.644629 -1.349702,-1.253363c-0.165443,-0.649351 -0.6041,-0.726581 -0.668892,-0.117763c-0.124821,1.172982 2.078534,2.779741 2.288827,1.669099l0,0z" fill-opacity="null" stroke-opacity="null" stroke-width="1.5" fill="white"/>
  <path stroke="white" transform="rotate(153.1614990234375 -19.763710021972656,89.76310729980469) " id="svg_36" d="m-20.498364,95.025274c-0.88577,-0.57138 -1.52067,-2.38697 -1.37638,-3.936c0.09098,-0.97677 2.01049,-6.90648 2.17812,-6.72862c0.05471,0.05805 0.5416,1.44051 1.08196,3.07214c0.86561,2.6137 0.98247,3.10107 0.98247,4.09705c0,2.0188 -0.94113,3.67243 -2.07117,3.63915c-0.32977,-0.00971 -0.68751,-0.07438 -0.795,-0.14372l0,0zm0.88746,-1.01537c0.02932,-0.26137 -0.03917,-0.38883 -0.20893,-0.38883c-0.38689,0 -0.92357,-0.84121 -1.04347,-1.63558c-0.12791,-0.84736 -0.46704,-0.94815 -0.51713,-0.15366c-0.09651,1.53066 1.60694,3.6274 1.76953,2.17807l0,0z" fill-opacity="null" stroke-opacity="null" stroke-width="1.5" fill="white"/>
  <rect stroke="white" id="svg_37" height="12.749981" width="10.999984" y="62.197357" x="44.250011" fill-opacity="null" stroke-opacity="null" stroke-width="1.5" fill="white"/>
  <path stroke="white" id="svg_38" d="m44.233762,66.60373l0,-7.749989l5.249993,7.749989l-5.249993,0z" fill-opacity="null" stroke-opacity="null" stroke-width="1.5" fill="white"/>
  <path stroke="white" id="svg_39" d="m55.233745,66.85373l0,-7.99999l-6.249988,7.99999l6.249988,0z" fill-opacity="null" stroke-opacity="null" stroke-width="1.5" fill="white"/>
  <path stroke="white" id="svg_46" d="m48.42675,88.499012c-3.14371,-1.83696 -4.26771,-2.998981 -4.27682,-4.421517c-0.0083,-1.296807 1.37922,-2.548424 2.81714,-2.541204c0.71803,0.003614 2.25826,0.480907 2.80366,0.868834c0.2748,0.195455 0.40496,0.176186 1.01678,-0.150565c1.66513,-0.889272 3.29114,-0.907942 4.34421,-0.049865c1.68304,1.371379 1.37662,3.009062 -0.88084,4.707776c-1.2002,0.903136 -3.82116,2.505356 -4.09835,2.505356c-0.08435,0 -0.86095,-0.413471 -1.72578,-0.918815l0,0z" fill-opacity="null" stroke-opacity="null" stroke-width="1.5" fill="white"/>
  <path stroke="white" transform="rotate(151.45555114746094 54.92485809326172,84.49701690673827) " id="svg_47" d="m53.91346,88.53618c-1.21945,-0.4386 -2.09352,-1.8322 -1.89488,-3.02121c0.12525,-0.74976 2.76786,-5.30132 2.99864,-5.1648c0.07532,0.04457 0.74561,1.10572 1.48954,2.35813c1.19168,2.00624 1.35257,2.38034 1.35257,3.14484c0,1.54959 -1.29568,2.8189 -2.8514,2.79335c-0.45399,-0.00745 -0.94649,-0.0571 -1.09447,-0.11031l0,0zm1.22176,-0.7794c0.04037,-0.20062 -0.05392,-0.29845 -0.28763,-0.29845c-0.53263,0 -1.27148,-0.6457 -1.43655,-1.25544c-0.1761,-0.65043 -0.64298,-0.72778 -0.71194,-0.11796c-0.13285,1.17492 2.21229,2.78433 2.43612,1.67185l0,0z" fill-opacity="null" stroke-opacity="null" stroke-width="1.5" fill="white"/>
  <path stroke="white" transform="rotate(-90.97245788574219 50.004470825195305,80.46001434326172) " id="svg_59" d="m52.88008,86.64811l0,0c-3.17603,0 -5.75123,-2.77001 -5.75123,-6.1881c0,-3.41764 2.5752,-6.18809 5.75123,-6.18809l0,0c-1.81002,1.46076 -2.87541,3.75349 -2.87541,6.18809s1.06539,4.7269 2.87541,6.1881z" fill-opacity="null" stroke-opacity="null" stroke-width="1.5" fill="white"/>
  <!-- Eyes: original cyan stroke, black fill so pupils show on white body -->
  <ellipse stroke="#00ffff" transform="rotate(25.126760482788086 36.47367477416991,47.89472961425782) " ry="1.8" rx="2.8" id="svg_61" cy="47.894731" cx="36.473676" fill-opacity="null" stroke-width="1.5" fill="#000000"/>
  <ellipse stroke="#00ffff" transform="rotate(-25.126726150512695 62.52632522583004,48.157886505126946) " ry="1.8" rx="2.8" id="svg_62" cy="48.157889" cx="62.526324" fill-opacity="null" stroke-width="1.5" fill="#000000"/>
  <path stroke="white" transform="rotate(-22.469846725463867 24.291879653930668,17.298936843872067) " id="svg_63" d="m22.648116,28.07274c-1.981907,-1.169871 -3.402473,-4.887113 -3.079635,-8.058594c0.203572,-1.999859 4.498419,-14.140401 4.873496,-13.776253c0.12242,0.118853 1.211804,2.949322 2.420853,6.289934c1.93677,5.351307 2.19827,6.34916 2.19827,8.388331c0,4.133314 -2.105787,7.518966 -4.634221,7.450833c-0.737833,-0.019885 -1.538276,-0.152297 -1.778763,-0.294249l0,-0.000001zm1.985647,-2.078905c0.065602,-0.535117 -0.087641,-0.796092 -0.467466,-0.796092c-0.86566,0 -2.066472,-1.722298 -2.334752,-3.34868c-0.286181,-1.734909 -1.044976,-1.941241 -1.157054,-0.314627c-0.215934,3.133904 3.595487,7.426772 3.959271,4.459398l0,0z" stroke-width="1.5" fill="white"/>
  <path stroke="white" transform="rotate(22.239171981811523 75.08139038085938,17.29893493652344) " id="svg_64" d="m73.437622,28.07274c-1.981907,-1.169871 -3.402473,-4.887113 -3.079635,-8.058594c0.203571,-1.99986 4.498419,-14.140401 4.873495,-13.776253c0.12242,0.118853 1.211804,2.949322 2.420854,6.289934c1.93677,5.351307 2.19827,6.34916 2.19827,8.38833c0,4.133314 -2.105787,7.518967 -4.634221,7.450833c-0.737833,-0.019885 -1.538276,-0.152297 -1.778763,-0.294249l0,-0.000001zm1.985647,-2.078905c0.065602,-0.535117 -0.087641,-0.796091 -0.467466,-0.796091c-0.86566,0 -2.066472,-1.722298 -2.334751,-3.34868c-0.286182,-1.734909 -1.044976,-1.941241 -1.157054,-0.314627c-0.215934,3.133904 3.595487,7.426772 3.959271,4.459398l0,0z" stroke-width="1.5" fill="white"/>
  <path stroke="white" transform="rotate(-177.0008087158203 26.423326492309567,25.73954010009766) " id="svg_65" d="m27.96511,32.12872c1.858945,-0.693768 3.191376,-2.898202 2.888568,-4.778983c-0.190942,-1.185975 -4.219328,-8.385673 -4.571134,-8.169722c-0.114825,0.070483 -1.136621,1.749035 -2.270658,3.730115c-1.816609,3.173482 -2.061885,3.765239 -2.061885,4.974526c0,2.451176 1.97514,4.458968 4.346704,4.418563c0.692056,-0.011792 1.442839,-0.090317 1.668405,-0.174499l0,0zm-1.862453,-1.232852c-0.061532,-0.31734 0.082203,-0.472106 0.438463,-0.472106c0.811953,0 1.938264,-1.021373 2.189899,-1.985866c0.268426,-1.028852 0.980143,-1.151213 1.085268,-0.186583c0.202537,1.858497 -3.372416,4.404294 -3.71363,2.644554l0,0z" fill-opacity="null" stroke-opacity="null" stroke-width="1.5" fill="white"/>
  <path stroke="white" transform="rotate(-177.06617736816406 72.47598266601561,24.950063705444332) " id="svg_66" d="m74.017769,31.339246c1.858946,-0.693768 3.191376,-2.898201 2.888568,-4.778983c-0.190941,-1.185975 -4.219328,-8.385672 -4.571133,-8.169722c-0.114825,0.070483 -1.136621,1.749035 -2.270659,3.730115c-1.816608,3.173483 -2.061885,3.765239 -2.061885,4.974527c0,2.451176 1.97514,4.458967 4.346704,4.418562c0.692056,-0.011792 1.442839,-0.090316 1.668405,-0.174498l0,-0.000001zm-1.862453,-1.232851c-0.061532,-0.31734 0.082203,-0.472106 0.438463,-0.472106c0.811953,0 1.938264,-1.021373 2.189899,-1.985865c0.268426,-1.028852 0.980143,-1.151213 1.085268,-0.186583c0.202537,1.858497 -3.372416,4.404294 -3.71363,2.644554l0,0z" fill-opacity="null" stroke-opacity="null" stroke-width="1.5" fill="white"/>
 </g>
</svg>
